HIERARCHY
ROOT Hips
{
	OFFSET 60.517300 -34.741116 86.670494
	CHANNELS 6 Xposition Yposition Zposition Xrotation Yrotation Zrotation
	JOINT spine
	{
		OFFSET 0.000000 -0.393700 6.846367
		CHANNELS 3 Xrotation Yrotation Zrotation
		JOINT spine1
		{
			OFFSET 0.000000 0.000000 9.496208
			CHANNELS 3 Xrotation Yrotation Zrotation
			JOINT spine2
			{
				OFFSET 0.000000 -0.000004 9.099091
				CHANNELS 3 Xrotation Yrotation Zrotation
				JOINT Neck
				{
					OFFSET 0.000000 -1.113785 23.361214
					CHANNELS 3 Xrotation Yrotation Zrotation
					JOINT Head
					{
						OFFSET 0.000000 0.000000 7.058014
						CHANNELS 3 Xrotation Yrotation Zrotation
						End Site
						{
							OFFSET 0.000000 5.634186 17.084396
						}
					}
				}
				JOINT RightShoulder
				{
					OFFSET -3.831360 0.533489 9.826309
					CHANNELS 3 Xrotation Yrotation Zrotation
					JOINT RightArm
					{
						OFFSET 0.000000 -0.000004 12.888100
						CHANNELS 3 Xrotation Yrotation Zrotation
						JOINT RightArmRoll
						{
							OFFSET 0.000000 0.000000 6.506165
							CHANNELS 3 Xrotation Yrotation Zrotation
							JOINT RightForeArm
							{
								OFFSET 0.000000 -0.000004 18.950104
								CHANNELS 3 Xrotation Yrotation Zrotation
								JOINT RightForeArmRoll
								{
									OFFSET 0.000000 0.000000 7.300934
									CHANNELS 3 Xrotation Yrotation Zrotation
									JOINT RightHand
									{
										OFFSET 0.000000 -0.000004 14.651398
										CHANNELS 3 Xrotation Yrotation Zrotation
										End Site
										{
											OFFSET 0.000000 0.000000 0.100006
										}
									}
								}
							}
						}
					}
				}
				JOINT LeftShoulder
				{
					OFFSET 3.831364 0.533489 9.826309
					CHANNELS 3 Xrotation Yrotation Zrotation
					JOINT LeftArm
					{
						OFFSET 0.000000 -0.000004 12.888100
						CHANNELS 3 Xrotation Yrotation Zrotation
						JOINT LeftArmRoll
						{
							OFFSET 0.000000 0.000000 6.506165
							CHANNELS 3 Xrotation Yrotation Zrotation
							JOINT LeftForeArm
							{
								OFFSET 0.000000 -0.000004 18.950104
								CHANNELS 3 Xrotation Yrotation Zrotation
								JOINT LeftForeArmRoll
								{
									OFFSET 0.000000 0.000000 7.300934
									CHANNELS 3 Xrotation Yrotation Zrotation
									JOINT LeftHand
									{
										OFFSET 0.000000 -0.000004 14.651398
										CHANNELS 3 Xrotation Yrotation Zrotation
										End Site
										{
											OFFSET 0.000000 0.000000 0.100006
										}
									}
								}
							}
						}
					}
				}
			}
		}
	}
	JOINT RightUpLeg
	{
		OFFSET -6.068371 0.933475 -1.112778
		CHANNELS 3 Xrotation Yrotation Zrotation
		JOINT RightUpLegRoll
		{
			OFFSET 0.000000 0.000000 17.179596
			CHANNELS 3 Xrotation Yrotation Zrotation
			JOINT RightLeg
			{
				OFFSET 0.000000 0.000004 -21.274300
				CHANNELS 3 Xrotation Yrotation Zrotation
				JOINT RightLegRoll
				{
					OFFSET 0.000000 -0.000004 21.343903
					CHANNELS 3 Xrotation Yrotation Zrotation
					JOINT RightFoot
					{
						OFFSET 0.000000 -0.000004 17.765198
						CHANNELS 3 Xrotation Yrotation Zrotation
						JOINT RightToeBase
						{
							OFFSET 0.000000 -0.000004 14.850800
							CHANNELS 3 Xrotation Yrotation Zrotation
							End Site
							{
								OFFSET 0.006294 0.829006 7.192123
							}
						}
					}
				}
			}
		}
	}
	JOINT LeftUpLeg
	{
		OFFSET 6.068371 0.933475 -1.112778
		CHANNELS 3 Xrotation Yrotation Zrotation
		JOINT LeftUpLegRoll
		{
			OFFSET 0.000000 0.000000 17.179703
			CHANNELS 3 Xrotation Yrotation Zrotation
			JOINT LeftLeg
			{
				OFFSET 0.000000 -0.000004 21.274200
				CHANNELS 3 Xrotation Yrotation Zrotation
				JOINT LeftLegRoll
				{
					OFFSET 0.000000 -0.000004 21.541206
					CHANNELS 3 Xrotation Yrotation Zrotation
					JOINT LeftFoot
					{
						OFFSET 0.000000 -0.000004 17.567902
						CHANNELS 3 Xrotation Yrotation Zrotation
						JOINT LeftToeBase
						{
							OFFSET 0.000000 -0.000004 14.850800
							CHANNELS 3 Xrotation Yrotation Zrotation
							End Site
							{
								OFFSET -0.028214 0.829006 7.192123
							}
						}
					}
				}
			}
		}
	}
}
MOTION
Frames: 9
Frame Time: 0.041667
59.315598 -26.625515 78.658875 6.967937 -2.116099 -5.055767 -2.004728 -0.711061 -0.200589 -0.009255 -1.416870 -0.419052 1.636004 -1.421780 -0.402044 8.345011 24.424586 -3.135102 15.333379 -21.098378 -1.265401 -10.459033 -3.392260 -7.306650 64.270106 32.849989 124.966193 -0.000009 -0.000005 -0.000009 11.043875 9.716496 0.278251 -0.000005 0.000015 -3.003968 -5.000162 -7.999920 0.000112 -13.735680 31.502909 15.109999 71.002610 -41.324277 -104.857570 0.000001 0.000002 -0.000001 6.571222 -7.826185 -1.379436 -0.000000 -0.000007 3.006509 -5.000146 8.000280 -0.000060 -39.444513 -171.520366 1.110298 179.999991 -0.000005 -0.683998 122.181484 -2.631989 -2.306656 0.000002 -0.000001 1.122518 89.347050 5.858043 4.838309 25.456897 -7.349789 0.000005 -33.886747 -185.155637 -5.639741 -0.000004 -0.000004 -0.627736 -56.954038 8.427573 4.358932 -0.000003 0.000002 -0.378011 94.306785 -7.089570 3.370924 25.477015 7.351635 -0.001129 
59.342995 -26.633417 78.613678 6.925099 -2.134717 -5.039633 -1.993552 -0.700495 -0.202154 0.013128 -1.395740 -0.421772 1.658386 -1.400683 -0.405016 8.295819 24.349035 -3.154788 15.312067 -21.025062 -1.308658 -10.461320 -3.480900 -7.324487 64.261739 32.541893 124.778281 -0.000006 -0.000007 -0.000013 11.106746 9.592994 0.259081 -0.000007 0.000015 -3.003983 -5.000162 -7.999916 0.000116 -13.693845 31.458687 15.048643 71.072783 -40.832964 -104.543237 0.000004 0.000001 -0.000000 6.875412 -7.446885 -1.319951 0.000002 -0.000008 3.006490 -5.000141 8.000275 -0.000061 -39.436860 -171.471653 1.136199 179.999991 -0.000004 -0.683000 122.097896 -2.625895 -2.308495 0.000002 -0.000001 1.126450 89.393413 5.857073 4.843838 25.456890 -7.349727 0.000006 -33.879832 -185.146061 -5.661051 -0.000007 -0.000004 -0.631589 -57.025833 8.396128 4.359677 -0.000002 0.000002 -0.389096 94.337767 -7.082588 3.339579 25.478528 7.351593 -0.001144 
59.334198 -26.642420 78.609184 6.884513 -2.152324 -5.020183 -1.983415 -0.689691 -0.204286 0.033419 -1.374120 -0.425643 1.678667 -1.379119 -0.409146 8.243039 24.267102 -3.175541 15.291335 -20.947495 -1.353751 -10.464396 -3.575133 -7.344597 64.254520 32.222490 124.572870 -0.000006 -0.000006 -0.000009 11.164619 9.462384 0.239488 -0.000006 0.000017 -3.004002 -5.000162 -7.999921 0.000109 -13.652181 31.410483 14.987327 71.143920 -40.319563 -104.211598 0.000003 0.000001 -0.000001 7.192157 -7.041111 -1.261644 0.000002 -0.000006 3.006471 -5.000151 8.000279 -0.000061 -39.426201 -171.419402 1.165661 180.000005 -0.000004 -0.683000 122.025715 -2.627553 -2.314797 0.000002 -0.000001 1.128729 89.433404 5.857058 4.843387 25.456889 -7.349673 -0.000002 -33.871359 -185.134067 -5.678887 -0.000005 -0.000004 -0.635554 -57.087609 8.363416 4.358645 -0.000003 0.000002 -0.400317 94.362868 -7.075676 3.305873 25.480038 7.351555 -0.001174 
59.360695 -26.653519 78.569893 6.846247 -2.168730 -4.997503 -1.974420 -0.678810 -0.206827 0.051435 -1.352330 -0.430340 1.696678 -1.357396 -0.414105 8.188118 24.179384 -3.197675 15.270993 -20.865893 -1.400689 -10.467859 -3.674267 -7.366238 64.250251 31.892882 124.350260 -0.000006 -0.000008 -0.000010 11.214185 9.325228 0.220199 -0.000006 0.000015 -3.004013 -5.000165 -7.999917 0.000112 -13.610062 31.359629 14.925324 71.212713 -39.790578 -103.874664 0.000000 0.000002 -0.000000 7.512452 -6.620501 -1.206770 0.000002 -0.000006 3.006460 -5.000144 8.000277 -0.000061 -39.412364 -171.364378 1.197489 179.999991 -0.000004 -0.682003 121.964912 -2.635344 -2.323075 0.000004 -0.000001 1.129539 89.467296 5.857811 4.838053 25.456885 -7.349607 -0.000002 -33.860991 -185.120516 -5.693244 -0.000006 -0.000004 -0.639563 -57.139204 8.330166 4.356238 -0.000003 0.000002 -0.411494 94.382443 -7.069139 3.271820 25.481557 7.351518 -0.001202 
59.343193 -26.679819 78.589386 6.810413 -2.183767 -4.971664 -1.966645 -0.668016 -0.209606 0.066987 -1.330719 -0.435542 1.712226 -1.335843 -0.419565 8.132486 24.086411 -3.221486 15.250843 -20.780470 -1.449473 -10.471408 -3.777601 -7.388638 64.251036 31.553971 124.109359 -0.000006 -0.000006 -0.000013 11.252534 9.182067 0.201821 -0.000006 0.000014 -3.004021 -5.000165 -7.999915 0.000109 -13.567254 31.307651 14.862165 71.276535 -39.252629 -103.545422 -0.000001 0.000003 0.000003 7.827319 -6.196761 -1.157052 0.000002 -0.000005 3.006451 -5.000150 8.000278 -0.000062 -39.394947 -171.308125 1.231102 179.999991 -0.000005 -0.679996 121.915680 -2.648195 -2.333614 0.000005 -0.000001 1.129049 89.495409 5.859186 4.828918 25.456887 -7.349547 -0.000002 -33.848567 -185.106268 -5.704143 -0.000008 -0.000004 -0.643550 -57.180455 8.296874 4.352512 -0.000006 0.000002 -0.422446 94.396356 -7.062879 3.236442 25.483065 7.351479 -0.001232 
59.368797 -26.686216 78.549782 6.777106 -2.197255 -4.942750 -1.960199 -0.657474 -0.212464 0.079892 -1.309599 -0.440923 1.725126 -1.314794 -0.425199 8.077572 23.988695 -3.247249 15.230494 -20.691542 -1.500171 -10.474636 -3.884437 -7.411015 64.258427 31.206964 123.851588 -0.000004 -0.000005 -0.000009 11.276563 9.033453 0.184969 -0.000005 0.000014 -3.004035 -5.000165 -7.999917 0.000111 -13.523118 31.255888 14.797140 71.333942 -38.712177 -103.237169 0.000003 0.000003 0.000001 8.127773 -5.781649 -1.113697 0.000000 -0.000006 3.006432 -5.000144 8.000278 -0.000060 -39.373653 -171.252131 1.265913 179.999991 -0.000004 -0.677999 121.878087 -2.665059 -2.345747 0.000003 -0.000002 1.127450 89.518030 5.861084 4.816773 25.456878 -7.349488 0.000002 -33.833895 -185.091296 -5.712137 -0.000006 -0.000004 -0.647447 -57.210962 8.264192 4.347648 -0.000002 0.000001 -0.432990 94.404860 -7.057010 3.201744 25.484476 7.351438 -0.001253 
59.380890 -26.670214 78.567093 6.746444 -2.209014 -4.910852 -1.955166 -0.647346 -0.215234 0.089960 -1.289308 -0.446159 1.735185 -1.294567 -0.430677 8.024798 23.886860 -3.275243 15.209769 -20.599333 -1.552783 -10.477035 -3.994065 -7.432603 64.274402 30.852579 123.577096 -0.000006 -0.000006 -0.000010 11.283284 8.879946 0.170188 -0.000002 0.000011 -3.004054 -5.000165 -7.999919 0.000114 -13.477183 31.205878 14.729631 71.384213 -38.175946 -102.959733 0.000001 0.000001 -0.000000 8.404858 -5.386927 -1.077396 0.000002 -0.000005 3.006417 -5.000146 8.000274 -0.000064 -39.348279 -171.196383 1.300084 179.999991 -0.000004 -0.676006 121.852296 -2.684890 -2.359733 0.000002 -0.000001 1.124900 89.535468 5.863293 4.802597 25.456875 -7.349428 0.000001 -33.816560 -185.075642 -5.717822 -0.000007 -0.000005 -0.651188 -57.230801 8.232710 4.341963 -0.000004 0.000002 -0.442947 94.408056 -7.051717 3.167737 25.485888 7.351400 -0.001286 
59.396397 -26.687614 78.537987 6.718493 -2.218854 -4.876055 -1.951644 -0.637795 -0.217750 0.097009 -1.270178 -0.450924 1.742232 -1.275480 -0.435673 7.975591 23.781424 -3.305731 15.188380 -20.504158 -1.607312 -10.478495 -4.105800 -7.452619 64.300808 30.491990 123.285857 -0.000006 -0.000009 -0.000011 11.269606 8.722113 0.158000 -0.000004 0.000015 -3.004064 -5.000163 -7.999923 0.000109 -13.429045 31.158937 14.659048 71.427291 -37.650168 -102.725075 0.000001 0.000001 -0.000000 8.649581 -5.024381 -1.048408 0.000001 -0.000008 3.006399 -5.000148 8.000277 -0.000062 -39.318541 -171.142411 1.333026 179.999991 -0.000004 -0.673998 121.838267 -2.707177 -2.374727 0.000004 -0.000001 1.121589 89.547981 5.865677 4.787756 25.456870 -7.349363 0.000002 -33.796387 -185.060984 -5.720645 -0.000007 -0.000004 -0.654704 -57.239461 8.203039 4.335554 -0.000003 0.000002 -0.452134 94.405884 -7.046925 3.133417 25.487102 7.351362 -0.001309 
59.386795 -26.703720 78.564987 6.693379 -2.226605 -4.838422 -1.949728 -0.628983 -0.219848 0.100851 -1.252518 -0.454892 1.746062 -1.257876 -0.439852 7.931359 23.672927 -3.338949 15.166029 -20.406138 -1.663839 -10.478417 -4.218935 -7.470289 64.339316 30.126144 122.979168 -0.000004 -0.000009 -0.000010 11.232537 8.560515 0.148879 -0.000005 0.000017 -3.004070 -5.000162 -7.999920 0.000112 -13.378076 31.116423 14.584684 71.463764 -37.141636 -102.543542 0.000000 -0.000001 0.000002 8.852941 -4.705821 -1.026641 -0.000000 -0.000006 3.006388 -5.000142 8.000274 -0.000060 -39.284017 -171.092496 1.364800 179.999991 -0.000004 -0.672003 121.836327 -2.729846 -2.389303 0.000002 -0.000001 1.117691 89.555904 5.868078 4.772866 25.456967 -7.349307 0.000009 -33.773206 -185.046504 -5.721712 -0.000005 -0.000004 -0.657930 -57.236780 8.175807 4.328666 -0.000002 0.000003 -0.460370 94.398767 -7.042742 3.103816 25.488207 7.351322 -0.001323 
